<svg width="73" height="68" viewBox="0 0 73 68" fill="none" xmlns="http://www.w3.org/2000/svg">
    <path
        d="M10.747 50.2857V44.8784V38.4735C10.747 36.918 10.9671 35.5607 9.0947 35.454C7.22227 35.3472 6.33064 37.467 3.12074 36.735C1.42667 36.3486 6.10352e-05 34.6305 6.10352e-05 32.6175C5.80243e-05 29.1405 3.77369 27.0426 7.40057 29.3235C10.747 31.428 10.747 27.4935 10.747 26.2125V17.7857C10.747 17.5885 10.9069 17.4286 11.1041 17.4286H23.4081C25.9047 17.6116 24.3889 20.4481 23.6756 22.1865C22.249 25.6635 24.1809 27.6155 25.548 28.134C30.3628 29.3235 31.522 24.1995 29.917 22.1865C27.7226 19.4342 28.3121 17.7031 29.3821 17.7031H41.2132C41.4207 17.7031 41.5853 17.8783 41.5779 18.0856C41.5232 19.6165 41.5974 23.2168 41.5974 26.7615C41.5974 31.5195 45.8772 29.964 45.8772 30.0555C45.8772 30.147 52.2903 28.347 52.832 33.3495C53.1886 36.6435 49.7113 38.7479 45.8772 37.5584C42.81 36.6067 42.3107 37.7415 42.3107 38.7479V50.2857C42.3107 50.483 42.1508 50.6429 41.9536 50.6429H28.7802C28.6556 50.6429 28.5384 50.5765 28.4762 50.4685C26.8596 47.6624 28.3965 46.3694 29.2929 44.1464C30.3628 41.4929 29.1935 39.2831 27.4205 38.7479C25.1022 38.0482 21.0007 39.297 22.6948 44.1464C24.0012 47.886 23.9431 50.6429 21.8032 50.6429H11.1041C10.9069 50.6429 10.747 50.483 10.747 50.2857Z"
        fill="#263238" />
    <path
        d="M41.3867 18.1429H51.6546C52.9046 18.1429 55.1845 17.0036 54.4224 12.431C53.6189 7.60923 57.4529 7.64937 59.0653 8.23409C59.8986 8.53202 61.3153 9.7885 60.3153 12.431C59.0653 15.7341 59.8689 18.3243 62.4581 18.3243H71.3867C71.584 18.3243 71.7439 18.4842 71.7439 18.6814V49.8358C71.7439 50.0344 71.5855 50.1949 71.3869 50.1931C69.679 50.1778 62.3682 50.1177 61.0296 50.1964C59.5117 50.2857 59.7751 51.942 60.6724 54.0357C62.0117 57.1607 60.6277 60.9738 56.1189 60.1964C53.5296 59.75 52.4581 56.9821 53.5296 54.0357C54.601 51.0893 53.351 50.1964 52.1903 50.1964C49.8321 50.1964 44.3155 50.1667 41.9643 50.1964"
        stroke="#263238" stroke-width="0.892857" stroke-linecap="round" />
    <path d="M42.7679 60.2857C43.3334 61.2678 44.5 63.3928 44.6429 64.0357" stroke="#263238"
        stroke-width="0.892857" stroke-linecap="round" />
    <path d="M40.5358 60.8214C40.2381 61.625 40.0893 64.0179 41.875 67.1607" stroke="#263238"
        stroke-width="0.892857" stroke-linecap="round" />
    <path d="M37.1429 60.2857C35.9822 61.3571 33.6072 63.8571 33.3929 65.2857" stroke="#263238"
        stroke-width="0.892857" stroke-linecap="round" />
    <path d="M40.8929 7.875C42.0536 6.80357 44.4286 4.30357 44.6429 2.875" stroke="#263238"
        stroke-width="0.892857" stroke-linecap="round" />
    <path d="M37.5001 7.33929C37.7977 6.53572 37.9465 4.14286 36.1608 1" stroke="#263238"
        stroke-width="0.892857" stroke-linecap="round" />
    <path d="M35.2679 7.875C34.7024 6.89286 33.5357 4.76786 33.3929 4.125" stroke="#263238"
        stroke-width="0.892857" stroke-linecap="round" />
</svg>